<?xml version="1.0" encoding="UTF-8"?>
<svg version="1.1" xmlns="http://www.w3.org/2000/svg" width="419" height="301">
<path d="M0 0 C10.89448016 1.99732136 20.52678628 5.74792591 29 13 C28.36048406 17.35066189 26.75314756 21.01716441 24.859375 24.94140625 C24.54110748 25.61262009 24.22283997 26.28383392 23.89492798 26.97538757 C23.20930436 28.41976841 22.52116019 29.86295495 21.83074951 31.30505371 C20.36231916 34.37227939 18.90595418 37.44518354 17.44869995 40.51773071 C16.70482064 42.08572622 15.96028979 43.6534128 15.21511841 45.22079468 C11.89270417 52.21110292 8.62505228 59.22572621 5.375 66.25 C4.31918057 68.52872468 3.26319046 70.80737029 2.20703125 73.0859375 C1.42126709 74.78121582 1.42126709 74.78121582 0.61962891 76.51074219 C-2.79853765 83.87469101 -6.23447296 91.23036518 -9.67114258 98.58569336 C-10.25213262 99.8292565 -10.83310586 101.0728275 -11.4140625 102.31640625 C-11.70325058 102.93541306 -11.99243866 103.55441986 -12.29039001 104.19218445 C-14.18615442 108.25194455 -16.07627738 112.31429229 -17.96305847 116.37823486 C-19.26458763 119.18130799 -20.56768377 121.98365138 -21.87088013 124.78594971 C-22.49558418 126.13043511 -23.11951376 127.47528065 -23.74264526 128.82049561 C-24.60381472 130.67941637 -25.46784917 132.53700909 -26.33203125 134.39453125 C-26.82421143 135.45518799 -27.3163916 136.51584473 -27.82348633 137.60864258 C-29 140 -29 140 -30 141 C-40.88872227 140.58910482 -50.37889568 135.33520544 -59 129 C-58.427819 123.66783794 -56.60205508 119.56855971 -54.2734375 114.82421875 C-53.89414093 114.03509598 -53.51484436 113.24597321 -53.12405396 112.43293762 C-52.3071484 110.73468628 -51.48695909 109.03801137 -50.66381836 107.34277344 C-48.46524817 102.81319409 -46.29196221 98.27150872 -44.1171875 93.73046875 C-43.67787903 92.81445892 -43.23857056 91.8984491 -42.78594971 90.9546814 C-38.909437 82.85362029 -35.18137277 74.69113104 -31.5 66.5 C-25.77393681 53.78267501 -19.8644168 41.15787429 -13.875 28.5625 C-13.46677002 27.70333984 -13.05854004 26.84417969 -12.63793945 25.95898438 C-8.50481726 17.26612749 -4.36870252 8.57777411 0 0 Z " fill="#9E2A2F" transform="translate(223,23)"/>
<path d="M0 0 C1.17949219 -0.01836914 1.17949219 -0.01836914 2.3828125 -0.03710938 C7.39430555 -0.04959648 11.49964503 0.58076229 16.25 2.1875 C14.85235764 6.66803933 13.10225266 10.81624721 11.08203125 15.05078125 C10.77087372 15.70645584 10.45971619 16.36213043 10.13912964 17.03767395 C9.46774626 18.45228964 8.7949712 19.86624551 8.12094116 21.27960205 C6.29343335 25.11334807 4.47791178 28.95274517 2.6640625 32.79296875 C2.2917601 33.5811499 1.9194577 34.36933105 1.53587341 35.18139648 C-2.07980592 42.85467972 -5.57749456 50.57924267 -9.0625 58.3125 C-16.65269403 75.13957684 -24.59014338 91.79771731 -32.54631042 108.45413208 C-35.99263595 115.67764586 -39.38080224 122.92774551 -42.75 130.1875 C-46.60611084 128.39906947 -49.294361 125.94146007 -52.25 122.9375 C-52.72308594 122.47214844 -53.19617188 122.00679688 -53.68359375 121.52734375 C-56.86440568 118.32890959 -59.63818053 115.1833937 -61.75 111.1875 C-61.37319806 106.86822644 -60.1466711 103.42845885 -58.30078125 99.53125 C-57.78974854 98.44215332 -57.27871582 97.35305664 -56.75219727 96.23095703 C-56.19459717 95.06161621 -55.63699707 93.89227539 -55.0625 92.6875 C-54.47573029 91.44289928 -53.88972686 90.19793704 -53.30444336 88.95263672 C-52.07681819 86.34277395 -50.84546211 83.73472065 -49.61132812 81.12792969 C-46.94279813 75.48622236 -44.31193095 69.82700094 -41.67764282 64.16925049 C-40.5166675 61.67759079 -39.35291691 59.18723184 -38.18916321 56.6968689 C-35.46344142 50.86397824 -32.74554228 45.02753254 -30.03515625 39.1875 C-26.62633322 31.84492241 -23.19978989 24.51093337 -19.75 17.1875 C-19.08750244 15.78008545 -19.08750244 15.78008545 -18.41162109 14.34423828 C-17.30797678 12.0147176 -16.18993594 9.69307744 -15.0625 7.375 C-14.75973145 6.7351416 -14.45696289 6.0952832 -14.14501953 5.43603516 C-13.30078125 3.73046875 -13.30078125 3.73046875 -11.75 1.1875 C-7.83002959 -0.1191568 -4.08513617 0.00328387 0 0 Z " fill="#9E2A2F" transform="translate(264.75,47.8125)"/>
<path d="M0 0 C8.10951038 2.21168465 13.0151818 10.09346372 17.8125 16.47265625 C19.40254777 19.85673817 18.87432628 21.36781694 18 25 C16.90016018 27.79661247 15.59702527 30.47909816 14.2734375 33.17578125 C13.89391434 33.96535721 13.51439117 34.75493317 13.12336731 35.56843567 C12.30622876 37.26714281 11.48581166 38.964276 10.66244507 40.65997314 C8.47073285 45.17556427 6.30455362 49.70337861 4.13671875 54.23046875 C3.69844254 55.14441406 3.26016632 56.05835938 2.80860901 57 C-1.1755419 65.32581399 -5.01942689 73.71076512 -8.8125 82.125 C-10.00840782 84.77375717 -11.20508323 87.42216649 -12.40234375 90.0703125 C-12.69412506 90.71580551 -12.98590637 91.36129852 -13.28652954 92.02635193 C-16.45764198 99.03001012 -19.68572377 106.00702232 -22.93222046 112.97601318 C-23.5560926 114.31536022 -24.17917213 115.65507677 -24.80142212 116.99517822 C-25.65432843 118.83121175 -26.51066492 120.66565069 -27.3671875 122.5 C-27.85300293 123.5415625 -28.33881836 124.583125 -28.83935547 125.65625 C-30 128 -30 128 -31 129 C-32.73338564 129.0995443 -34.47079083 129.13080346 -36.20703125 129.1328125 C-37.26857422 129.13410156 -38.33011719 129.13539063 -39.42382812 129.13671875 C-41.1012207 129.13091797 -41.1012207 129.13091797 -42.8125 129.125 C-43.91916016 129.12886719 -45.02582031 129.13273438 -46.16601562 129.13671875 C-47.23142578 129.13542969 -48.29683594 129.13414062 -49.39453125 129.1328125 C-50.37268799 129.13168457 -51.35084473 129.13055664 -52.35864258 129.12939453 C-54.73075892 129.01318955 -56.73245941 128.67586603 -59 128 C-58.35389986 123.12002246 -56.32801414 119.12198052 -54.203125 114.74609375 C-53.81813339 113.94143173 -53.43314178 113.13676971 -53.03648376 112.307724 C-52.20947663 110.58059331 -51.37996153 108.8546617 -50.54818726 107.12982178 C-48.35567152 102.58274444 -46.18143255 98.02692518 -44.00390625 93.47265625 C-43.57012161 92.56684814 -43.13633698 91.66104004 -42.68940735 90.7277832 C-39.13507806 83.30119643 -35.64148523 75.84877552 -32.1875 68.375 C-31.67944824 67.27631592 -31.17139648 66.17763184 -30.64794922 65.0456543 C-29.62663828 62.83682162 -28.60547888 60.62791886 -27.58447266 58.41894531 C-25.89015115 54.76297021 -24.18704513 51.11120316 -22.48046875 47.4609375 C-22.1829068 46.82442764 -21.88534485 46.18791779 -21.57876587 45.53211975 C-20.38323852 42.97514417 -19.18754334 40.41824712 -17.99169922 37.86141968 C-13.36501245 27.9656122 -8.79389478 18.04560545 -4.28662109 8.09472656 C-3.86590332 7.17014648 -3.44518555 6.24556641 -3.01171875 5.29296875 C-2.64522217 4.4836792 -2.27872559 3.67438965 -1.90112305 2.84057617 C-1 1 -1 1 0 0 Z " fill="#9E2A2F" transform="translate(194,10)"/>
<path d="M0 0 C3 1 3 1 4.28125 3.01171875 C12.73675143 21.57588055 12.73675143 21.57588055 9.85351562 30.05444336 C8.02084533 34.55498285 5.7645023 38.83058322 3.5 43.125 C2.70581753 44.70153285 1.91582372 46.28018222 1.12988281 47.86083984 C-0.46066291 51.05229434 -2.06843204 54.23408159 -3.68945312 57.41015625 C-7.06406156 64.06169994 -10.15307875 70.84104855 -13.25 77.625 C-14.71109225 80.80190834 -16.17728221 83.97581503 -17.6628418 87.14135742 C-18.55441148 89.04739895 -19.42834051 90.96179176 -20.28442383 92.8840332 C-24.05975926 101.0515215 -24.05975926 101.0515215 -29.1875 102.9375 C-30.14269531 103.30101563 -31.09789062 103.66453125 -32.08203125 104.0390625 C-33.04496094 104.35617188 -34.00789062 104.67328125 -35 105 C-35.91136719 105.31710938 -36.82273438 105.63421875 -37.76171875 105.9609375 C-41.99858449 107.34156042 -45.51740828 108.15047569 -50 108 C-44.58393678 95.75367928 -38.96445143 83.60919471 -33.25 71.5 C-32.90553833 70.77000793 -32.56107666 70.04001587 -32.20617676 69.28790283 C-31.86002319 68.55432556 -31.51386963 67.82074829 -31.15722656 67.06494141 C-20.6386686 44.77170919 -10.31817325 22.38652477 0 0 Z " fill="#9E2A2F" transform="translate(166,9)"/>
<path d="M0 0 C-0.62256849 3.86290382 -1.78423375 7.02396375 -3.44921875 10.55859375 C-4.21576782 12.19707275 -4.21576782 12.19707275 -4.99780273 13.86865234 C-5.55540283 15.04637207 -6.11300293 16.2240918 -6.6875 17.4375 C-7.2740617 18.68675699 -7.86006974 19.93627408 -8.44555664 21.18603516 C-9.67397043 23.80641871 -10.90523572 26.42543393 -12.13867188 29.04345703 C-14.79954942 34.69444462 -17.43450723 40.35749573 -20.07235718 46.01925659 C-21.23370369 48.51036105 -22.39728402 51.00041925 -23.56083679 53.49049377 C-26.28641321 59.3234984 -29.00434751 65.1599726 -31.71484375 71 C-37.63800815 83.75364985 -43.56665877 96.49294531 -50 109 C-52.44508878 105.98462812 -54.04620468 103.00721092 -55.5625 99.4375 C-55.97628906 98.48746094 -56.39007813 97.53742188 -56.81640625 96.55859375 C-57.20699219 95.38425781 -57.59757813 94.20992188 -58 93 C-58.29640381 92.27756104 -58.59280762 91.55512207 -58.89819336 90.81079102 C-62.08239518 80.60617763 -55.97223458 71.92932091 -51.4375 63.0625 C-50.55617606 61.28565731 -49.67802383 59.50723805 -48.80297852 57.72729492 C-47.0482798 54.16316377 -45.28099983 50.60574815 -43.50390625 47.05273438 C-40.00895942 40.03690789 -36.71442328 32.9320601 -33.4375 25.8125 C-32.90890381 24.67498291 -32.38030762 23.53746582 -31.83569336 22.36547852 C-29.26335313 16.8911553 -29.26335313 16.8911553 -27.01757812 11.28051758 C-24.79544627 6.30044712 -17.80266013 4.8406671 -13 3 C-3.73134328 0 -3.73134328 0 0 0 Z " fill="#9E2A2F" transform="translate(299,70)"/>
<path d="M0 0 C28.90726817 0 28.90726817 0 34.41015625 3.55859375 C38.56571797 8.2839488 40.02454408 11.96428823 39.64453125 18.30078125 C38.58597897 22.73386987 36.11607897 25.76335845 33 29 C33.5775 29.226875 34.155 29.45375 34.75 29.6875 C37.69524155 31.40555757 39.1588874 33.12931786 41 36 C41.91923736 41.40051952 42.29118142 47.83393244 39.25 52.625 C35.43809611 56.64867633 32.61932194 58.90390653 26.90551758 59.11352539 C25.04382935 59.10567017 25.04382935 59.10567017 23.14453125 59.09765625 C21.93385986 59.09515869 20.72318848 59.09266113 19.47583008 59.09008789 C17.93693115 59.08098389 16.39803223 59.07187988 14.8125 59.0625 C9.924375 59.041875 5.03625 59.02125 0 59 C0 39.53 0 20.06 0 0 Z M12 11 C12 14.96 12 18.92 12 23 C13.93875 23.061875 15.8775 23.12375 17.875 23.1875 C18.96554688 23.22230469 20.05609375 23.25710937 21.1796875 23.29296875 C22.57574219 23.14794922 22.57574219 23.14794922 24 23 C26.35062805 20.10622176 26.35062805 20.10622176 25.875 16.4375 C25.39968464 12.99024231 25.39968464 12.99024231 23.2421875 11.79296875 C19.47911336 10.46212546 15.96618687 10.88334744 12 11 Z M12 34 C12 38.95 12 43.9 12 49 C19.50837005 49.43828913 19.50837005 49.43828913 26 46 C27.36997745 44.84254513 27.36997745 44.84254513 27.3125 41.6875 C27.25345618 38.08330978 27.25345618 38.08330978 25.6875 35.5625 C21.27648594 32.99795694 17.03163219 33.76039847 12 34 Z " fill="#261E19" transform="translate(8,218)"/>
<path d="M0 0 C5.57142857 5.14285714 5.57142857 5.14285714 6 9 C2.81237635 11.12508244 0.73487777 11.5020163 -3 12 C-2.6596875 13.5159375 -2.6596875 13.5159375 -2.3125 15.0625 C-1.94023605 19.75302583 -2.63463822 21.95599437 -5 26 C-10.03406036 30.64682495 -16.48249894 31.6079124 -23 33 C-21.48019531 33.14695312 -21.48019531 33.14695312 -19.9296875 33.296875 C-18.57802945 33.44705923 -17.22647183 33.59814923 -15.875 33.75 C-14.87726563 33.8428125 -14.87726563 33.8428125 -13.859375 33.9375 C-8.95460327 34.51453197 -5.8010872 35.86438504 -2 39 C0.75595421 43.01082673 0.53000091 47.30570625 0 52 C-1.84133419 56.60333548 -4.78033311 58.53852765 -9 61 C-12.76974576 62.25658192 -16.32172192 62.22313998 -20.25 62.25 C-20.98863281 62.270625 -21.72726562 62.29125 -22.48828125 62.3125 C-28.74125247 62.35661267 -33.25683162 61.02128197 -38.375 57.25 C-40.57627548 54.2020801 -40.79734658 51.71531261 -41 48 C-40.67 47.01 -40.34 46.02 -40 45 C-36.04 45 -32.08 45 -28 45 C-27.67 46.98 -27.34 48.96 -27 51 C-20.83629549 52.18470607 -20.83629549 52.18470607 -14.9375 50.5625 C-14.298125 50.046875 -13.65875 49.53125 -13 49 C-13.34786708 47.02463255 -13.34786708 47.02463255 -14 45 C-17.58935451 43.20532275 -21.99348414 43.6299929 -25.97070312 43.48242188 C-30.01940084 43.28391958 -33.39358464 42.91655216 -37 41 C-38.54586876 37.90826248 -38.29359521 35.40570448 -38 32 C-36 29.5625 -36 29.5625 -34 28 C-35.2375 27.13375 -35.2375 27.13375 -36.5 26.25 C-39.27678716 23.46525643 -39.50847599 20.98611241 -39.6875 17.125 C-39.46287995 11.91381474 -38.47762989 8.87541872 -34.6875 5.26953125 C-28.47138684 0.59305723 -19.83739326 1.36679479 -12.43359375 2.3359375 C-11.67175781 2.45195312 -10.90992188 2.56796875 -10.125 2.6875 C-6.00036479 3.24346176 -3.54189627 2.27044633 0 0 Z M-25.8125 12.125 C-27.52849028 14.83445834 -27.333728 16.86295684 -27 20 C-25.06268472 22.36410488 -25.06268472 22.36410488 -21.5625 22.3125 C-18.13088181 22.27836668 -18.13088181 22.27836668 -16.0625 20.8125 C-14.59680177 18.31219126 -14.50147865 16.84869344 -15 14 C-17.12791162 11.7144653 -18.47408328 11.07696342 -21.5625 10.625 C-24.00218108 10.83730108 -24.00218108 10.83730108 -25.8125 12.125 Z " fill="#261E19" transform="translate(388,231)"/>
<path d="M0 0 C3.96 0.33 7.92 0.66 12 1 C12.33 21.13 12.66 41.26 13 62 C8.71 62 4.42 62 0 62 C-0.99 62.495 -0.99 62.495 -2 63 C-9.13897709 63.72218508 -14.26235486 63.44960235 -20 59 C-25.36413186 52.76600892 -26.28799756 45.92547723 -25.875 37.9375 C-25.14199307 31.2466809 -23.41461337 26.35270021 -18.5625 21.625 C-13.15468094 18.19565133 -9.30837975 17.68975182 -3 18 C-2.34 18.33 -1.68 18.66 -1 19 C-0.67 12.73 -0.34 6.46 0 0 Z M-9.6875 29.3125 C-13.58597703 34.32482761 -12.61989645 42.03088475 -12 48 C-10.66332493 50.9340295 -9.91554385 51.38025342 -7 53 C-4.175619 52.86863344 -2.50524739 52.25262369 0 51 C0 44.07 0 37.14 0 30 C-4.89759656 27.38984991 -4.89759656 27.38984991 -9.6875 29.3125 Z " fill="#261E19" transform="translate(120,215)"/>
<path d="M0 0 C4.75 0.875 4.75 0.875 7 2 C5.18181818 7.71428571 5.18181818 7.71428571 3.6875 10.0625 C3.3471875 11.0215625 3.3471875 11.0215625 3 12 C4.28288757 14.55503957 4.28288757 14.55503957 6 17 C8.30920972 23.71210291 8.39672522 34.04967526 5.4375 40.5625 C2.51285078 45.3463905 -1.67350349 49.22450116 -7 51 C-8.81054127 51.09398229 -10.62452781 51.12991987 -12.4375 51.125 C-13.85869141 51.12886719 -13.85869141 51.12886719 -15.30859375 51.1328125 C-17.70140459 51.01473475 -19.71336153 50.68112635 -22 50 C-22.4640625 51.175625 -22.4640625 51.175625 -22.9375 52.375 C-24 55 -24 55 -25 57 C-27.02045442 56.39816251 -29.02111039 55.72693904 -31 55 C-31.33 54.34 -31.66 53.68 -32 53 C-31.319375 51.906875 -30.63875 50.81375 -29.9375 49.6875 C-28.09982513 46.76722523 -28.09982513 46.76722523 -28.625 43.375 C-29.07875 42.59125 -29.5325 41.8075 -30 41 C-33.34506147 34.05066566 -33.20086028 25.32868242 -31.16015625 17.97265625 C-28.96366213 13.0545802 -26.23701411 9.36125623 -21.45703125 6.765625 C-15.61605999 4.94554492 -8.78521842 5.07159386 -3 7 C-2.690625 6.21625 -2.38125 5.4325 -2.0625 4.625 C-1 2 -1 2 0 0 Z M-14 15 C-16.28299761 16.71224821 -17.62243593 18.11901717 -18.75 20.75 C-19.13079042 24.17711381 -19.05745729 27.55256262 -19 31 C-15.76612108 28.04732794 -13.77754751 25.12077252 -11.75 21.25 C-10.96882813 19.77273437 -10.96882813 19.77273437 -10.171875 18.265625 C-9.78515625 17.51796875 -9.3984375 16.7703125 -9 16 C-11.3888839 15.34391058 -11.3888839 15.34391058 -14 15 Z M-7 26 C-8.43147492 28.08187535 -9.79060154 30.16972021 -11.125 32.3125 C-11.51042969 32.90740234 -11.89585937 33.50230469 -12.29296875 34.11523438 C-13.27785257 35.69493154 -14.14693944 37.34539221 -15 39 C-14.67 39.99 -14.34 40.98 -14 42 C-11.58414426 41.96906827 -11.58414426 41.96906827 -9 41 C-5.52150998 36.20208273 -5.65981404 31.66976598 -6 26 C-6.33 26 -6.66 26 -7 26 Z " fill="#261E19" transform="translate(168,227)"/>
<path d="M0 0 C10.89 0 21.78 0 33 0 C33 7 33 7 32 11 C25.4 11 18.8 11 12 11 C12 14.96 12 18.92 12 23 C17.61 23 23.22 23 29 23 C29 26.63 29 30.26 29 34 C23.39 34 17.78 34 12 34 C12 38.62 12 43.24 12 48 C19.26 48 26.52 48 34 48 C34 51.63 34 55.26 34 59 C22.78 59 11.56 59 0 59 C0 39.53 0 20.06 0 0 Z " fill="#261E19" transform="translate(204,218)"/>
<path d="M0 0 C5.36941848 3.11707814 8.6079351 7.15193031 10.5859375 13.0859375 C10.73471661 15.6838497 10.81696985 18.23736899 10.8359375 20.8359375 C10.8565625 21.526875 10.8771875 22.2178125 10.8984375 22.9296875 C10.94628161 29.29295391 9.44802219 33.87156651 5.2734375 38.8359375 C-0.30255126 43.50420716 -4.63234048 44.60578601 -11.80078125 44.36328125 C-17.97713039 43.70779427 -21.22890504 40.58172392 -25.1171875 36.09765625 C-29.53915121 29.23828483 -29.50762984 20.43416529 -27.9140625 12.640625 C-25.99211846 6.89663316 -22.67862098 3.68769838 -17.8515625 0.2734375 C-12.05427098 -1.72926321 -5.82222635 -2.20453231 0 0 Z M-12.6640625 9.7109375 C-16.1899903 14.49612522 -15.80667062 20.34404372 -15.4140625 26.0859375 C-14.98797778 28.64728769 -14.36504882 30.63339384 -13.4140625 33.0859375 C-10.66800407 35.33215323 -10.66800407 35.33215323 -7.9140625 35.0234375 C-4.49588399 33.74162056 -3.95550296 32.36700362 -2.4140625 29.0859375 C-1.94026687 25.44771645 -1.94026687 25.44771645 -2.0390625 21.5859375 C-2.02746094 19.65234375 -2.02746094 19.65234375 -2.015625 17.6796875 C-2.43033394 13.9391755 -3.12425666 12.03468027 -5.4140625 9.0859375 C-8.70110133 7.6531257 -9.73088468 7.5925313 -12.6640625 9.7109375 Z " fill="#261E19" transform="translate(80.4140625,233.9140625)"/>
<path d="M0 0 C4.73414267 3.43225344 7.25422102 7.10267967 8.5 12.8125 C8.5 16.7725 8.5 20.7325 8.5 24.8125 C0.58 24.8125 -7.34 24.8125 -15.5 24.8125 C-14.51 27.4525 -13.52 30.0925 -12.5 32.8125 C-5.93592388 34.12531522 -1.66645379 33.33903315 4.5 30.8125 C8.5 36.5625 8.5 36.5625 8.5 38.8125 C0.9280054 43.59841081 -5.58871147 45.00902851 -14.5 43.8125 C-19.6775197 42.47233815 -22.53467386 40.2152538 -25.4375 35.75 C-29.62387664 28.35643312 -29.92635805 18.35491985 -27.81640625 10.15625 C-25.68089321 5.54850402 -22.62147962 2.70630484 -18.5 -0.1875 C-12.5892363 -2.15775457 -5.87151456 -1.99212101 0 0 Z M-14.5 9.8125 C-15.23343428 12.87806598 -15.23343428 12.87806598 -15.5 15.8125 C-11.54 15.8125 -7.58 15.8125 -3.5 15.8125 C-3.94703986 11.33366304 -3.94703986 11.33366304 -6.5 7.8125 C-10.23296326 7.42963197 -11.27626323 7.66334215 -14.5 9.8125 Z " fill="#261E19" transform="translate(309.5,234.1875)"/>
<path d="M0 0 C0.66 0.99 1.32 1.98 2 3 C2.78375 2.505 3.5675 2.01 4.375 1.5 C9.04999276 -0.43447976 13.00613427 -0.88222263 18 0 C21.61783152 1.8999075 23.6874455 4.06233651 25 8 C25.08507079 10.7315956 25.11591565 13.43691443 25.09765625 16.16796875 C25.0962413 16.96278152 25.09482635 17.7575943 25.09336853 18.57649231 C25.08777378 21.11353325 25.07522228 23.65048575 25.0625 26.1875 C25.05748432 27.90820185 25.05292153 29.62890508 25.04882812 31.34960938 C25.03780607 35.5664403 25.02054506 39.78320516 25 44 C21.04 44 17.08 44 13 44 C12.97494385 43.0713916 12.9498877 42.1427832 12.92407227 41.18603516 C12.82902068 37.74564196 12.72978293 34.30542287 12.62768555 30.86523438 C12.58433411 29.37537359 12.54265916 27.88546305 12.50268555 26.39550781 C12.44498785 24.25570673 12.38129245 22.11615615 12.31640625 19.9765625 C12.27974854 18.68830566 12.24309082 17.40004883 12.20532227 16.07275391 C12.20469325 13.0872318 12.20469325 13.0872318 11 11 C7.62537285 11.54723683 5.91765 12.0549 3 14 C2.48779459 17.10213725 2.48779459 17.10213725 2.48828125 20.7578125 C2.47033005 21.42086395 2.45237885 22.08391541 2.43388367 22.76705933 C2.37967076 24.88630803 2.34585229 27.00533025 2.3125 29.125 C2.27933633 30.56122952 2.24484755 31.9974291 2.20898438 33.43359375 C2.12394036 36.95551129 2.05718127 40.47750759 2 44 C-1.96 44 -5.92 44 -10 44 C-10.495 23.21 -10.495 23.21 -11 2 C-3.52941176 -0.49019608 -3.52941176 -0.49019608 0 0 Z " fill="#261E19" transform="translate(252,233)"/>
<path d="M0 0 C0.66 0.33 1.32 0.66 2 1 C-5.86119881 18.50343654 -13.84311139 35.94867254 -22.03768921 53.29882812 C-22.8883168 55.10120645 -23.7368046 56.90459617 -24.5831604 58.70898438 C-25.7744119 61.24651866 -26.97384136 63.78001444 -28.17578125 66.3125 C-28.53349609 67.07763916 -28.89121094 67.84277832 -29.25976562 68.63110352 C-31.77098807 73.88549403 -31.77098807 73.88549403 -34 75 C-36.06995884 53.4612391 -32.63081173 33.03741127 -18.45703125 15.83203125 C-13.01970995 9.53168931 -7.10897584 4.37949922 0 0 Z " fill="#9E2A2F" transform="translate(307,95)"/>
<path d="M0 0 C0.66 0 1.32 0 2 0 C4.23377134 19.59077833 1.03524397 39.56761476 -11.23242188 55.61181641 C-16.83779862 62.4144783 -23.37491459 69.51883973 -31 74 C-31.99 73.67 -32.98 73.34 -34 73 C-33.58339111 72.11666992 -33.16678223 71.23333984 -32.73754883 70.32324219 C-25.39519596 54.75216638 -18.06134674 39.17737245 -10.8125 23.5625 C-10.29727783 22.45293945 -9.78205566 21.34337891 -9.2512207 20.20019531 C-6.13634347 13.48080615 -3.05449258 6.74704962 0 0 Z " fill="#9E2A2F" transform="translate(141,18)"/>
<path d="M0 0 C0.33 0.66 0.66 1.32 1 2 C1.55171875 1.50886719 2.1034375 1.01773438 2.671875 0.51171875 C5.46370069 -1.30109424 6.96185741 -1.3172951 10.25 -1.1875 C11.8175 -1.125625 13.385 -1.06375 15 -1 C14.01 2.63 13.02 6.26 12 10 C9.03 10.66 6.06 11.32 3 12 C2.67 22.23 2.34 32.46 2 43 C-2.29 43 -6.58 43 -11 43 C-11.495 22.21 -11.495 22.21 -12 1 C-3.80263158 -1.34210526 -3.80263158 -1.34210526 0 0 Z " fill="#261E19" transform="translate(334,234)"/>
<path d="M0 0 C0 14.52 0 29.04 0 44 C-3.96 44 -7.92 44 -12 44 C-12 29.81 -12 15.62 -12 1 C-7 0 -7 0 0 0 Z " fill="#261E19" transform="translate(407,233)"/>
<path d="M0 0 C2.375 1.5625 2.375 1.5625 4 4 C4.5625 7.5 4.5625 7.5 4 11 C1.9375 13.5 1.9375 13.5 -1 15 C-4.625 15.0625 -4.625 15.0625 -8 14 C-10.58094937 11.17708663 -11.01389559 9.69477972 -10.9375 5.875 C-10 3 -10 3 -8.3125 1.125 C-5.26389315 -0.35810604 -3.35257076 -0.48891657 0 0 Z " fill="#261E19" transform="translate(404,215)"/>
</svg>
