<?xml version="1.0" encoding="UTF-8"?>
<svg version="1.1" xmlns="http://www.w3.org/2000/svg" width="512" height="512">
<path d="M0 0 C1.04754286 -0.00297112 2.09508573 -0.00594224 3.17437232 -0.0090034 C6.67840032 -0.01766266 10.18239404 -0.01919633 13.68643188 -0.02069092 C16.20172193 -0.02532117 18.71701127 -0.03034611 21.2322998 -0.03573608 C28.06338766 -0.04884493 34.89446428 -0.05533973 41.72556257 -0.05974674 C45.99806943 -0.06251558 50.27057404 -0.06675419 54.54307938 -0.07125092 C66.39175715 -0.08344149 78.24043314 -0.0937399 90.08911705 -0.09712601 C90.84673835 -0.09734557 91.60435965 -0.09756514 92.38493917 -0.09779136 C93.52397478 -0.09811878 93.52397478 -0.09811878 94.68602121 -0.09845281 C96.22456956 -0.09889626 97.76311791 -0.09934282 99.30166626 -0.09979248 C100.44640749 -0.10012463 100.44640749 -0.10012463 101.61427481 -0.10046348 C113.9599046 -0.1044053 126.30547515 -0.12184142 138.65108208 -0.145152 C151.35159749 -0.16893733 164.05208327 -0.18133118 176.75262129 -0.18249393 C183.87309156 -0.18340688 190.9934847 -0.1890624 198.11393356 -0.20731354 C204.81986659 -0.22444244 211.52562918 -0.22591381 218.23158646 -0.21717453 C220.68199302 -0.21640803 223.13240766 -0.22069527 225.58279419 -0.23063278 C267.31183184 -0.38982825 304.07113119 13.2614508 334.03262329 42.67218018 C358.66247804 67.69311708 374.64986561 102.34447586 374.61837769 137.6625061 C374.62283437 139.2338204 374.62283437 139.2338204 374.62738109 140.83687842 C374.63604035 144.34090642 374.63757401 147.84490014 374.6390686 151.34893799 C374.64369886 153.86422803 374.6487238 156.37951738 374.65411377 158.89480591 C374.66722261 165.72589376 374.67371742 172.55697039 374.67812443 179.38806868 C374.68089327 183.66057553 374.68513188 187.93308014 374.6896286 192.20558548 C374.70181917 204.05426326 374.71211759 215.90293924 374.71550369 227.75162315 C374.71572326 228.50924445 374.71594282 229.26686575 374.71616904 230.04744527 C374.71638732 230.80680235 374.7166056 231.56615942 374.71683049 232.34852731 C374.71727395 233.88707566 374.71772051 235.42562401 374.71817017 236.96417236 C374.7183916 237.72733319 374.71861303 238.49049401 374.71884117 239.27678092 C374.72278299 251.62241071 374.7402191 263.96798125 374.76352969 276.31358819 C374.78731502 289.0141036 374.79970887 301.71458938 374.80087161 314.4151274 C374.80178456 321.53559766 374.80744009 328.6559908 374.82569122 335.77643967 C374.84282013 342.4823727 374.84429149 349.18813529 374.83555222 355.89409256 C374.83478572 358.34449912 374.83907295 360.79491376 374.84901047 363.24530029 C375.00820593 404.97433794 361.35692689 441.7336373 331.94619751 471.69512939 C301.61999869 501.54732378 263.40315181 512.82364182 221.68008423 512.64215088 C219.16272684 512.64594377 216.64537155 512.65145173 214.12802124 512.65852356 C208.055091 512.67093608 201.98242952 512.66500713 195.90951321 512.64984798 C188.81273336 512.63282008 181.71600356 512.63621885 174.61920956 512.63994206 C161.9454486 512.64579427 149.27178759 512.63175121 136.59805298 512.60699463 C124.34410867 512.58306132 112.09029773 512.5760017 99.83633423 512.58648682 C86.43549066 512.597933 73.03470847 512.59978215 59.63386559 512.58538872 C58.20127631 512.58386314 56.76868702 512.58234279 55.33609772 512.58082771 C54.63154412 512.5800699 53.92699051 512.57931208 53.2010868 512.57853131 C48.2720566 512.57381858 43.3430541 512.57561819 38.41402435 512.57989311 C31.76534893 512.58537504 25.11682931 512.57443542 18.4681778 512.55293846 C16.04034542 512.54741275 13.61249533 512.54686608 11.18466187 512.55189133 C-30.46580148 512.62724033 -67.17313277 498.96262367 -97.07675171 469.60870361 C-121.70660646 444.58776671 -137.69399403 409.93640793 -137.6625061 374.61837769 C-137.66696279 373.04706339 -137.66696279 373.04706339 -137.6715095 371.44400537 C-137.68016876 367.93997737 -137.68170243 364.43598365 -137.68319702 360.9319458 C-137.68782728 358.41665576 -137.69285222 355.90136641 -137.69824219 353.38607788 C-137.71135103 346.55499002 -137.71784584 339.7239134 -137.72225285 332.89281511 C-137.72502169 328.62030826 -137.7292603 324.34780365 -137.73375702 320.07529831 C-137.74594759 308.22662053 -137.75624601 296.37794455 -137.75963211 284.52926064 C-137.75985168 283.77163934 -137.76007124 283.01401804 -137.76029746 282.23343851 C-137.76051574 281.47408144 -137.76073402 280.71472437 -137.76095891 279.93235648 C-137.76140236 278.39380813 -137.76184893 276.85525978 -137.76229858 275.31671143 C-137.76252001 274.5535506 -137.76274144 273.79038978 -137.76296958 273.00410287 C-137.7669114 260.65847308 -137.78434752 248.31290254 -137.80765811 235.9672956 C-137.83144344 223.26678019 -137.84383728 210.56629441 -137.84500003 197.86575639 C-137.84591298 190.74528613 -137.85156851 183.62489299 -137.86981964 176.50444412 C-137.88694855 169.79851109 -137.88841991 163.0927485 -137.87968063 156.38679123 C-137.87891413 153.93638466 -137.88320137 151.48597003 -137.89313889 149.0355835 C-138.05233435 107.30654585 -124.4010553 70.54724649 -94.99032593 40.58575439 C-69.96938902 15.95589964 -35.31803024 -0.03148793 0 0 Z M-77.20956421 69.89044189 C-101.57404647 98.2710476 -105.85814132 130.57664673 -105.78085327 166.75372314 C-105.78357204 168.92961747 -105.78713789 171.10551088 -105.79147339 173.28140259 C-105.80049438 179.12438138 -105.79709618 184.96728856 -105.79071522 190.8102684 C-105.78560133 196.96630781 -105.79036148 203.12234166 -105.79348755 209.27838135 C-105.79711165 219.61034225 -105.79236917 229.94227443 -105.7828064 240.27423096 C-105.77192489 252.16727024 -105.77545157 264.06024092 -105.78645921 275.95327854 C-105.79557666 286.2206178 -105.79679568 296.48793658 -105.79158187 306.75527859 C-105.78848656 312.8628953 -105.78798489 318.97047992 -105.79465485 325.07809448 C-105.800493 330.82390124 -105.79631492 336.56962077 -105.78486633 342.31541824 C-105.78225395 344.40616334 -105.78292504 346.49691597 -105.78739166 348.58765793 C-105.8639411 388.10576742 -98.39672675 420.50723876 -70.12362671 449.60919189 C-42.24564651 475.91266823 -8.12535586 480.52970915 28.64981079 480.33575439 C30.55557131 480.33280241 32.46133347 480.33076912 34.36709595 480.32965088 C41.32073446 480.31929737 48.27433793 480.29137617 55.22793579 480.26544189 C70.82043579 480.22419189 86.41293579 480.18294189 102.47793579 480.14044189 C102.47793579 437.90044189 102.47793579 395.66044189 102.47793579 352.14044189 C84.65793579 351.81044189 66.83793579 351.48044189 48.47793579 351.14044189 C41.16905182 346.26785258 41.16905182 346.26785258 39.47793579 342.14044189 C39.06270038 339.16275851 39.05765227 336.22563077 39.07388306 333.22271729 C39.06701981 332.33429642 39.06015656 331.44587555 39.05308533 330.53053284 C39.03481376 327.59955778 39.03865539 324.66911783 39.04434204 321.73809814 C39.03978038 319.69695359 39.03447486 317.65581058 39.02845764 315.6146698 C39.0195258 311.33844765 39.02195051 307.06241224 39.03189087 302.78619385 C39.04337994 297.31058626 39.02317015 291.83562361 38.99397373 286.36010075 C38.97561341 282.14527808 38.97590389 277.93061 38.98161125 273.71575737 C38.98176449 271.69716932 38.97571811 269.67857081 38.96331978 267.66002083 C38.94841512 264.83545794 38.9590831 262.01208704 38.97622681 259.18756104 C38.96172485 257.94129944 38.96172485 257.94129944 38.94692993 256.66986084 C39.01404527 251.37984564 39.8813096 248.27457601 43.47793579 244.14044189 C47.01085642 241.4254542 49.58829402 240.75975854 54.00259399 240.70806885 C55.08333694 240.68827469 56.1640799 240.66848053 57.27757263 240.64808655 C58.43295029 240.64169662 59.58832794 240.6353067 60.77871704 240.62872314 C61.97022873 240.61077194 63.16174042 240.59282074 64.38935852 240.57432556 C68.18968177 240.52020499 71.98987927 240.48632013 75.79043579 240.45294189 C78.36922933 240.41977049 80.94800628 240.385281 83.52676392 240.34942627 C89.84370846 240.26447727 96.16066923 240.19613454 102.47793579 240.14044189 C102.48380203 239.39478973 102.48966827 238.64913757 102.49571228 237.88088989 C102.55404888 230.79186414 102.62635241 223.70314258 102.7136507 216.61442375 C102.75803859 212.97158979 102.79736013 209.32885959 102.82437134 205.68585205 C102.85072478 202.15834992 102.89134144 198.63125418 102.94112206 195.10400772 C102.96548749 193.12925781 102.97575169 191.15434964 102.98558044 189.17947388 C103.37971126 164.48468694 112.7482489 141.44858683 129.84512329 123.60137939 C134.41666184 119.32827957 139.31650048 115.66684535 144.47793579 112.14044189 C145.24234985 111.59774658 146.00676392 111.05505127 146.79434204 110.49591064 C152.16652903 106.9549387 157.92093862 104.64693229 163.91543579 102.39044189 C164.69024292 102.09637451 165.46505005 101.80230713 166.26333618 101.49932861 C178.6420658 97.03020223 190.71749594 96.81516598 203.71621704 96.80450439 C205.56942342 96.79806628 207.42262881 96.79133718 209.27583313 96.78433228 C213.13953003 96.77242128 217.00313787 96.76864563 220.86685181 96.76983643 C225.81092286 96.7700406 230.75442551 96.74260934 235.6983614 96.70829201 C239.51683676 96.68604702 243.33517398 96.68199796 247.1537075 96.68305588 C248.97693042 96.68070129 250.80015722 96.67188575 252.62331581 96.65639114 C255.16942075 96.63675597 257.71428077 96.64255623 260.26040649 96.65460205 C261.00701538 96.64336304 261.75362427 96.63212402 262.52285767 96.62054443 C267.65333524 96.68210499 270.58569085 97.81847257 274.47793579 101.14044189 C278.12102114 105.45886166 277.91112163 109.66815113 277.88198853 115.0581665 C277.8922834 116.39079781 277.8922834 116.39079781 277.90278625 117.75035095 C277.92105783 120.68132601 277.9172162 123.61176596 277.91152954 126.54278564 C277.9160912 128.5839302 277.92139673 130.62507321 277.92741394 132.66621399 C277.93634578 136.94243614 277.93392107 141.21847155 277.92398071 145.49468994 C277.91249165 150.97029753 277.93270143 156.44526018 277.96189785 161.92078304 C277.98025817 166.13560571 277.97996769 170.35027379 277.97426033 174.56512642 C277.97410709 176.58371447 277.98015348 178.60231298 277.9925518 180.62086296 C278.00745646 183.44542585 277.99678848 186.26879675 277.97964478 189.09332275 C277.98931274 189.92416382 277.99898071 190.75500488 278.00894165 191.61102295 C277.94153756 196.92379709 276.9609754 199.90158166 273.47793579 204.14044189 C268.821515 208.38557353 262.88146867 207.56331067 256.93887329 207.54669189 C255.82106476 207.55752808 254.70325623 207.56836426 253.55157471 207.57952881 C248.77414114 207.62540912 243.99676136 207.63690682 239.21914673 207.65167236 C235.72968975 207.66732228 232.24069297 207.70030797 228.75137329 207.73419189 C227.12478287 207.72966003 227.12478287 207.72966003 225.46533203 207.72503662 C223.95829208 207.74020325 223.95829208 207.74020325 222.42080688 207.75567627 C221.53654022 207.75773071 220.65227356 207.75978516 219.74121094 207.76190186 C217.45680788 207.99694632 217.45680788 207.99694632 215.68731689 209.24969482 C213.87078676 212.08965901 214.14116382 214.43351464 214.18496704 217.77716064 C214.19463501 219.07589111 214.20430298 220.37462158 214.21426392 221.71270752 C214.23932995 223.08445828 214.26472478 224.45620307 214.29043579 225.82794189 C214.3054856 227.21139113 214.31917349 228.5948559 214.33145142 229.97833252 C214.36686356 233.36609397 214.41625525 236.75307329 214.47793579 240.14044189 C215.34157745 240.14408752 216.20521912 240.14773315 217.09503174 240.15148926 C225.24613551 240.18940355 233.39684056 240.24629522 241.54766273 240.32434464 C245.73781493 240.36380297 249.9277575 240.39599934 254.11807251 240.41143799 C258.16430339 240.42661567 262.20995791 240.46108018 266.25593185 240.50875092 C267.7971838 240.5235534 269.33851805 240.53148226 270.87984085 240.53232574 C273.04418154 240.53470075 275.20693621 240.56181882 277.3710022 240.59454346 C278.60122101 240.6034259 279.83143982 240.61230835 281.09893799 240.62145996 C286.17903789 241.401715 289.2187129 243.49103389 292.32009888 247.55342102 C295.49767533 254.65326083 293.76290968 262.12263343 291.21817017 269.16802979 C290.20606301 271.74890118 289.14185357 274.30587109 288.07168579 276.86309814 C287.50614307 278.25702498 286.94241958 279.65169113 286.38040161 281.04704285 C284.90251962 284.70189935 283.39985755 288.34604465 281.89163208 291.98846436 C280.38653545 295.63628774 278.90608719 299.29407534 277.42324829 302.95098877 C274.88908934 309.19188008 272.32633335 315.42040458 269.74536133 321.64206886 C268.14173001 325.51391081 266.57101303 329.39720055 265.02481079 333.29229736 C264.6664917 334.18130234 264.30817261 335.07030731 263.93899536 335.98625183 C263.3062628 337.55661208 262.68365497 339.13111653 262.07449341 340.71076965 C259.97742249 345.84906211 257.4255017 348.66665894 252.47793579 351.14044189 C233.66793579 351.63544189 233.66793579 351.63544189 214.47793579 352.14044189 C214.47793579 394.38044189 214.47793579 436.62044189 214.47793579 480.14044189 C253.18795127 480.14044189 283.61387503 472.26786801 311.94668579 444.74200439 C338.36418466 416.74317637 342.81560365 382.44883285 342.73672485 345.52716064 C342.73944363 343.35126632 342.74300947 341.17537291 342.74734497 338.9994812 C342.75636596 333.15650241 342.75296776 327.31359523 342.7465868 321.47061539 C342.74147291 315.31457598 342.74623306 309.15854213 342.74935913 303.00250244 C342.75298323 292.67054154 342.74824075 282.33860936 342.73867798 272.00665283 C342.72779647 260.11361355 342.73132315 248.22064287 342.74233079 236.32760525 C342.75144824 226.06026599 342.75266726 215.79294721 342.74745345 205.5256052 C342.74435814 199.41798849 342.74385647 193.31040387 342.75052643 187.20278931 C342.75636458 181.45698255 342.75218651 175.71126302 342.74073792 169.96546555 C342.73812554 167.87472045 342.73879662 165.78396782 342.74326324 163.69322586 C342.81981268 124.17511637 335.35259833 91.77364503 307.07949829 62.67169189 C279.34136707 36.50016609 245.38028392 31.80439031 208.77871704 31.88165283 C206.58164352 31.87893472 204.38457092 31.87536924 202.1875 31.87103271 C196.28254791 31.86200389 190.37766661 31.86541326 184.47271347 31.87179089 C178.25480731 31.87690061 172.03690668 31.87214575 165.81900024 31.86901855 C155.38271003 31.86539327 144.94644824 31.87014009 134.51016235 31.87969971 C122.49272078 31.89058145 110.47535835 31.88705485 98.45791721 31.8760469 C88.08785457 31.86693286 77.71781221 31.86570878 67.34774685 31.87092423 C61.17699002 31.8740214 55.00626497 31.87451596 48.83551025 31.86785126 C43.0306243 31.86201816 37.22582477 31.86618226 31.42094803 31.87763977 C29.30720792 31.88025479 27.19346037 31.87957634 25.07972336 31.87511444 C-14.83170352 31.79871725 -48.88076318 39.86590278 -77.20956421 69.89044189 Z M158.47793579 142.14044189 C157.44668579 142.86231689 156.41543579 143.58419189 155.35293579 144.32794189 C141.45284872 156.61642467 135.62428994 174.2050388 134.47793579 192.14044189 C134.35243685 196.78833616 134.32101505 201.43455539 134.30927086 206.08379555 C134.30199157 208.36734807 134.28624955 210.65069944 134.26792908 212.93418884 C134.2159458 219.41770943 134.16742294 225.90110136 134.15200806 232.38482666 C134.14191384 236.3723882 134.11257848 240.35941269 134.07068825 244.3467617 C134.05841974 245.85732143 134.05324939 247.36795695 134.05548668 248.87856483 C134.05784679 250.98898369 134.03563212 253.09785924 134.00796509 255.20806885 C134.00209885 256.40510941 133.9962326 257.60214996 133.9901886 258.83546448 C133.20998373 263.86922797 131.08618575 266.90452994 127.07322693 269.98841858 C124.16668458 271.27860314 122.12466462 271.53567926 118.95327759 271.57281494 C117.87253464 271.5926091 116.79179169 271.61240326 115.67829895 271.63279724 C114.5229213 271.63918716 113.36754364 271.64557709 112.17715454 271.65216064 C110.98564285 271.67011185 109.79413116 271.68806305 108.56651306 271.70655823 C104.76618981 271.7606788 100.96599231 271.79456366 97.16543579 271.82794189 C94.58664225 271.8611133 92.0078653 271.89560279 89.42910767 271.93145752 C83.11203207 272.01888406 76.79552987 272.07894131 70.47793579 272.14044189 C70.47793579 287.98044189 70.47793579 303.82044189 70.47793579 320.14044189 C74.30645142 320.16622314 78.13496704 320.19200439 82.07949829 320.21856689 C85.79295157 320.25699397 89.50626632 320.30215235 93.21963501 320.34796143 C95.79769258 320.37616349 98.3758365 320.39738176 100.95401001 320.41143799 C104.66295554 320.43287698 108.37086372 320.47953585 112.07949829 320.53106689 C113.22971466 320.53229553 114.37993103 320.53352417 115.56500244 320.53479004 C121.63168539 320.64548706 125.84982021 320.77740559 130.47793579 325.14044189 C133.27291597 329.00604764 133.85683327 331.69693843 133.87666321 336.43629456 C133.88920135 337.70529099 133.9017395 338.97428741 133.91465759 340.28173828 C133.91348364 341.68035915 133.91202453 343.07897979 133.91030884 344.4776001 C133.91932873 345.95615965 133.92965651 347.43471172 133.94119263 348.91325378 C133.96876231 352.92111412 133.97804707 356.92883257 133.9840467 360.93677545 C133.99343046 365.12753941 134.01963386 369.3181974 134.04405212 373.50889587 C134.08772076 381.44188502 134.11626548 389.37485359 134.13937551 397.30792636 C134.16642523 406.34057953 134.21033688 415.37312612 134.25566423 424.40570319 C134.34851578 442.98390714 134.41796825 461.56210069 134.47793579 480.14044189 C150.31793579 480.14044189 166.15793579 480.14044189 182.47793579 480.14044189 C182.48728149 475.62791748 182.4966272 471.11539307 182.5062561 466.46612549 C182.53999695 451.57020046 182.5953283 436.67441375 182.66183853 421.77860069 C182.70164183 412.74572834 182.73402775 403.71294326 182.74893188 394.67999268 C182.76194173 386.80653381 182.78888924 378.9332669 182.83254886 371.05991614 C182.8551788 366.89129098 182.87084556 362.7229027 182.86981964 358.55421066 C182.86907392 354.62902211 182.88698866 350.70435749 182.91910362 346.7793045 C182.92760964 345.34022283 182.92934773 343.90108243 182.92373848 342.46198654 C182.91708881 340.49348362 182.93739644 338.52494519 182.95895386 336.55654907 C182.96448462 334.90561784 182.96448462 334.90561784 182.97012711 333.22133446 C183.74226181 328.53676692 186.0545468 325.37113293 189.60952759 322.29742432 C193.84415887 320.58937106 197.84461313 320.6603516 202.37246704 320.62872314 C203.31982224 320.61077194 204.26717743 320.59282074 205.24324036 320.57432556 C208.25892736 320.52029102 211.27445669 320.48634863 214.29043579 320.45294189 C216.33928582 320.41976279 218.38811507 320.38527258 220.43692017 320.34942627 C225.45047817 320.26456833 230.46398996 320.19772424 235.47793579 320.14044189 C238.18624406 313.46620827 240.89187606 306.79089448 243.59561157 300.11480713 C244.516538 297.84176814 245.4380867 295.56898117 246.36026001 293.29644775 C247.68235666 290.03806886 249.00224425 286.77880294 250.32168579 283.51934814 C250.7372876 282.4964418 251.1528894 281.47353546 251.58108521 280.41963196 C251.96147949 279.47873215 252.34187378 278.53783234 252.73379517 277.56842041 C253.07132813 276.73569107 253.40886108 275.90296173 253.75662231 275.04499817 C254.53696581 273.32400778 254.53696581 273.32400778 254.47793579 272.14044189 C253.71451874 272.13679626 252.95110168 272.13315063 252.16455078 272.12939453 C244.95522564 272.09146165 237.74641424 272.03454982 230.53742027 271.95653915 C226.83153946 271.91710022 223.12589496 271.88489456 219.41983032 271.8694458 C215.84040152 271.854255 212.26162255 271.81976816 208.68248367 271.77213287 C207.31986783 271.75734373 205.95715919 271.74940229 204.59446335 271.74855804 C191.12747997 271.73182981 191.12747997 271.73182981 186.47793579 267.14044189 C183.80230423 263.38434782 183.09808388 260.8131663 183.07388306 256.22369385 C183.06119888 255.0551033 183.04851471 253.88651276 183.03544617 252.68251038 C183.03838181 251.42726059 183.04131744 250.1720108 183.04434204 248.87872314 C183.03910019 247.57775192 183.03385834 246.2767807 183.02845764 244.93638611 C183.01953598 242.18342384 183.02193537 239.43075174 183.03189087 236.67779541 C183.04333096 233.17540743 183.02324263 229.67403519 182.99397373 226.17178059 C182.97103592 222.8032111 182.97808777 219.43486849 182.98184204 216.06622314 C182.97060806 214.82109451 182.95937408 213.57596588 182.94779968 212.29310608 C183.03498393 201.28603654 185.57544249 193.1872922 193.18496704 185.12091064 C200.26288553 179.00761478 207.95020869 177.01093098 217.08340454 176.82403564 C217.82739502 176.80538452 218.5713855 176.7867334 219.33792114 176.76751709 C222.11364006 176.69928602 224.88955191 176.63909478 227.66543579 176.57794189 C233.87356079 176.43356689 240.08168579 176.28919189 246.47793579 176.14044189 C246.47793579 160.30044189 246.47793579 144.46044189 246.47793579 128.14044189 C238.70231079 128.09919189 230.92668579 128.05794189 222.91543579 128.01544189 C220.49385132 127.99723389 218.07226685 127.97902588 215.57730103 127.96026611 C194.23499458 127.86519752 176.42428174 129.43216707 158.47793579 142.14044189 Z " fill="#000000" transform="translate(137.52206420898438,-0.14044189453125)"/>
</svg>
